<svg width="82" height="87" viewBox="0 0 82 87" fill="none" xmlns="http://www.w3.org/2000/svg">
<path d="M40.552 50.32L40.552 54L28.008 54L28.008 32.24L31.848 32.24L31.848 50.32L40.552 50.32ZM48.9628 50.768C51.4374 50.768 52.6748 49.8507 52.6748 48.016C52.6748 47.2693 52.4828 46.6827 52.0988 46.256C51.7361 45.8293 51.0534 45.456 50.0508 45.136L47.4268 44.272C44.2908 43.248 42.7228 41.1893 42.7228 38.096C42.7228 36.304 43.2774 34.832 44.3868 33.68C45.5174 32.5067 47.2774 31.92 49.6668 31.92C50.6694 31.92 51.6614 32.0373 52.6428 32.272C53.6241 32.4853 54.6694 32.8373 55.7788 33.328L54.5948 36.624C53.5708 36.2187 52.6961 35.9307 51.9708 35.76C51.2668 35.568 50.5414 35.472 49.7948 35.472C48.8134 35.472 48.0348 35.6533 47.4588 36.016C46.9041 36.3573 46.6268 36.9867 46.6268 37.904C46.6268 38.5867 46.8188 39.152 47.2028 39.6C47.6081 40.0267 48.2694 40.3893 49.1868 40.688L51.8108 41.552C53.3894 42.0853 54.5734 42.864 55.3628 43.888C56.1734 44.8907 56.5788 46.224 56.5788 47.888C56.5788 49.808 55.9708 51.3653 54.7548 52.56C53.5388 53.7333 51.6294 54.32 49.0268 54.32C48.0028 54.32 46.9361 54.2027 45.8268 53.968C44.7388 53.712 43.5441 53.2853 42.2428 52.688L43.4268 49.392C44.6214 49.904 45.6348 50.2667 46.4668 50.48C47.3201 50.672 48.1521 50.768 48.9628 50.768Z" fill="#9050F7"/>
<path d="M38.7142 37.2673C38.9494 37.52 39.2286 37.7206 39.5359 37.8574C39.8432 37.9942 40.1727 38.0646 40.5053 38.0646C40.838 38.0646 41.1675 37.9942 41.4748 37.8574C41.7821 37.7206 42.0613 37.52 42.2964 37.2673L54.9544 23.6735C55.1897 23.421 55.3765 23.1212 55.5039 22.7911C55.6313 22.4611 55.6968 22.1073 55.6968 21.75C55.6968 21.3927 55.6313 21.0389 55.5039 20.7089C55.3765 20.3788 55.1897 20.079 54.9544 19.8265L42.2964 6.23274C42.0613 5.97996 41.7821 5.77942 41.4748 5.64261C41.1675 5.50579 40.838 5.43536 40.5053 5.43536C40.1727 5.43536 39.8432 5.50579 39.5359 5.64261C39.2286 5.77942 38.9494 5.97996 38.7142 6.23274L26.0563 19.8265C25.8209 20.079 25.6342 20.3788 25.5068 20.7089C25.3794 21.0389 25.3138 21.3927 25.3138 21.75C25.3138 22.1073 25.3794 22.4611 25.5068 22.7911C25.6342 23.1212 25.8209 23.421 26.0563 23.6735L38.7142 37.2673ZM40.5053 11.9999L49.5842 21.75L40.5053 31.5001L31.4264 21.75L40.5053 11.9999ZM42.2964 49.7225C42.0613 49.4698 41.7821 49.2692 41.4748 49.1324C41.1675 48.9956 40.838 48.9252 40.5053 48.9252C40.1727 48.9252 39.8432 48.9956 39.5359 49.1324C39.2286 49.2692 38.9494 49.4698 38.7142 49.7225L26.0563 63.3163C25.8209 63.5688 25.6342 63.8686 25.5068 64.1987C25.3794 64.5287 25.3138 64.8825 25.3138 65.2398C25.3138 65.5971 25.3794 65.9509 25.5068 66.2809C25.6342 66.611 25.8209 66.9108 26.0563 67.1633L38.7142 80.7571C38.9494 81.0098 39.2286 81.2104 39.5359 81.3472C39.8432 81.484 40.1727 81.5544 40.5053 81.5544C40.838 81.5544 41.1675 81.484 41.4748 81.3472C41.7821 81.2104 42.0613 81.0098 42.2964 80.7571L54.9544 67.1633C55.1897 66.9108 55.3765 66.611 55.5039 66.2809C55.6313 65.9509 55.6968 65.5971 55.6968 65.2398C55.6968 64.8825 55.6313 64.5287 55.5039 64.1987C55.3765 63.8686 55.1897 63.5688 54.9544 63.3163L42.2964 49.7225ZM40.5053 75.0001L31.4264 65.25L40.5053 55.4999L49.5842 65.25L40.5053 75.0001ZM75.207 41.5765L62.5491 27.9827C62.314 27.73 62.0348 27.5294 61.7275 27.3926C61.4201 27.2558 61.0907 27.1854 60.758 27.1854C60.4253 27.1854 60.0959 27.2558 59.7886 27.3926C59.4812 27.5294 59.202 27.73 58.9669 27.9827L46.309 41.5765C46.0736 41.829 45.8869 42.1288 45.7595 42.4589C45.6321 42.7889 45.5665 43.1427 45.5665 43.5C45.5665 43.8573 45.6321 44.2111 45.7595 44.5411C45.8869 44.8712 46.0736 45.171 46.309 45.4235L58.9669 59.0173C59.202 59.27 59.4812 59.4706 59.7886 59.6074C60.0959 59.7442 60.4253 59.8146 60.758 59.8146C61.0907 59.8146 61.4201 59.7442 61.7275 59.6074C62.0348 59.4706 62.314 59.27 62.5491 59.0173L75.207 45.4235C75.4424 45.171 75.6292 44.8712 75.7566 44.5411C75.884 44.2111 75.9495 43.8573 75.9495 43.5C75.9495 43.1427 75.884 42.7889 75.7566 42.4589C75.6292 42.1288 75.4424 41.829 75.207 41.5765ZM60.758 53.2501L51.6791 43.5L60.758 33.7499L69.8369 43.5L60.758 53.2501ZM34.7017 41.5765L22.0438 27.9827C21.8086 27.73 21.5294 27.5294 21.2221 27.3926C20.9148 27.2558 20.5853 27.1854 20.2527 27.1854C19.92 27.1854 19.5905 27.2558 19.2832 27.3926C18.9759 27.5294 18.6967 27.73 18.4616 27.9827L5.80364 41.5765C5.56826 41.829 5.38153 42.1288 5.25413 42.4589C5.12673 42.7889 5.06116 43.1427 5.06116 43.5C5.06116 43.8573 5.12673 44.2111 5.25413 44.5411C5.38153 44.8712 5.56826 45.171 5.80364 45.4235L18.4616 59.0173C18.6967 59.27 18.9759 59.4706 19.2832 59.6074C19.5905 59.7442 19.92 59.8146 20.2527 59.8146C20.5853 59.8146 20.9148 59.7442 21.2221 59.6074C21.5294 59.4706 21.8086 59.27 22.0438 59.0173L34.7017 45.4235C34.9371 45.171 35.1238 44.8712 35.2512 44.5411C35.3786 44.2111 35.4442 43.8573 35.4442 43.5C35.4442 43.1427 35.3786 42.7889 35.2512 42.4589C35.1238 42.1288 34.9371 41.829 34.7017 41.5765ZM20.2527 53.2501L11.1738 43.5L20.2527 33.7499L29.3316 43.5L20.2527 53.2501Z" fill="#9250F7" fill-opacity="0.3"/>
</svg>
